name rise49.5252peak65.1548fall88.8305.mot
datacolumns 19
datarows 35
range 2.63665000000000 2.69331900000000
endheader
time	ground_force1_vx	ground_force1_vy	ground_force1_vz	ground_force1_px	ground_force1_py	ground_force1_pz	ground_force2_vx	ground_force2_vy	ground_force2_vz	ground_force2_px	ground_force2_py	ground_force2_pz	ground_torque1_x	ground_torque1_y	ground_torque1_z	ground_torque2_x	ground_torque2_y	ground_torque2_z	
2.63665000000000	-52.81273200000000	807.92876699999999	59.05361900000000	0.15867800000000	0.00000000000000	0.13702500000000	-9.34052700000000	67.34524500000001	12.36871900000000	0.39391600000000	0.00000000000000	-0.06007500000000	0.00000000000000	33.37372700000000	0.00000000000000	0.00000000000000	9.29996400000000	0.00000000000000	
2.63831400000000	-53.40371100000000	806.35090800000000	58.85648600000000	0.15798800000000	0.00000000000000	0.13692400000000	-9.61249500000000	72.67580599999999	12.90607300000000	0.39539100000000	0.00000000000000	-0.06057600000000	0.00000000000000	33.32247000000000	0.00000000000000	0.00000000000000	9.74072800000000	0.00000000000000	
2.63998800000000	-53.99483100000000	804.64063399999998	58.63604200000000	0.15731000000000	0.00000000000000	0.13681800000000	-9.77397800000000	77.78405800000000	13.32859400000000	0.39686700000000	0.00000000000000	-0.06104900000000	0.00000000000000	33.26566500000000	0.00000000000000	0.00000000000000	10.10115400000000	0.00000000000000	
2.64165000000000	-54.58609600000000	802.79626499999995	58.39219900000000	0.15664500000000	0.00000000000000	0.13670800000000	-9.83236700000000	82.69693700000001	13.64494000000000	0.39834400000000	0.00000000000000	-0.06149800000000	0.00000000000000	33.20345200000000	0.00000000000000	0.00000000000000	10.38744900000000	0.00000000000000	
2.64331600000000	-55.17749800000000	800.81617800000004	58.12491800000000	0.15599400000000	0.00000000000000	0.13659200000000	-9.79752300000000	87.45459200000001	13.86674500000000	0.39982300000000	0.00000000000000	-0.06192600000000	0.00000000000000	33.13597200000000	0.00000000000000	0.00000000000000	10.60803800000000	0.00000000000000	
2.64498200000000	-55.76900500000000	798.69879700000001	57.83419900000000	0.15535700000000	0.00000000000000	0.13647100000000	-9.68064200000000	92.10535200000000	14.00727400000000	0.40130200000000	0.00000000000000	-0.06233600000000	0.00000000000000	33.06336600000000	0.00000000000000	0.00000000000000	10.77258500000000	0.00000000000000	
2.64665500000000	-56.36056400000000	796.44259799999998	57.52009300000000	0.15473400000000	0.00000000000000	0.13634500000000	-9.49321600000000	96.70088400000000	14.08017200000000	0.40278100000000	0.00000000000000	-0.06272800000000	0.00000000000000	32.98577800000000	0.00000000000000	0.00000000000000	10.89107200000000	0.00000000000000	
2.64832100000000	-56.95210000000000	794.04610700000001	57.18269100000000	0.15412500000000	0.00000000000000	0.13621500000000	-9.24614800000000	101.29191800000000	14.09839900000000	0.40425700000000	0.00000000000000	-0.06310700000000	0.00000000000000	32.90334400000000	0.00000000000000	0.00000000000000	10.97300900000000	0.00000000000000	
2.64998400000000	-57.54350700000000	791.50789799999995	56.82213500000000	0.15353100000000	0.00000000000000	0.13607900000000	-8.94906400000000	105.92475399999999	14.07340300000000	0.40572900000000	0.00000000000000	-0.06347200000000	0.00000000000000	32.81620200000000	0.00000000000000	0.00000000000000	11.02680900000000	0.00000000000000	
2.65165200000000	-58.13465200000000	788.82659400000000	56.43860700000000	0.15295200000000	0.00000000000000	0.13593800000000	-8.60985200000000	110.63870600000000	14.01454200000000	0.40719400000000	0.00000000000000	-0.06382500000000	0.00000000000000	32.72448200000000	0.00000000000000	0.00000000000000	11.05935600000000	0.00000000000000	
2.65331500000000	-58.72536900000000	786.00086799999997	56.03233600000000	0.15238700000000	0.00000000000000	0.13579100000000	-8.23441100000000	115.46449200000001	13.92877100000000	0.40865000000000	0.00000000000000	-0.06416800000000	0.00000000000000	32.62831100000000	0.00000000000000	0.00000000000000	11.07575100000000	0.00000000000000	
2.65498600000000	-59.31545300000000	783.02944200000002	55.60359700000000	0.15183700000000	0.00000000000000	0.13564000000000	-7.82659500000000	120.42354200000000	13.82056300000000	0.41009500000000	0.00000000000000	-0.06450200000000	0.00000000000000	32.52781000000000	0.00000000000000	0.00000000000000	11.07924600000000	0.00000000000000	
2.65665100000000	-59.90466600000000	779.91108599999995	55.15270500000000	0.15130200000000	0.00000000000000	0.13548400000000	-7.38832900000000	125.52809100000000	13.69202600000000	0.41152500000000	0.00000000000000	-0.06482900000000	0.00000000000000	32.42308900000000	0.00000000000000	0.00000000000000	11.07131100000000	0.00000000000000	
2.65831400000000	-60.49272300000000	776.64462300000002	54.68002100000000	0.15078100000000	0.00000000000000	0.13532200000000	-6.91984200000000	130.78192500000000	13.54317600000000	0.41293700000000	0.00000000000000	-0.06514800000000	0.00000000000000	32.31425400000000	0.00000000000000	0.00000000000000	11.05183500000000	0.00000000000000	
2.65998200000000	-61.07929900000000	773.22892300000001	54.18594700000000	0.15027400000000	0.00000000000000	0.13515600000000	-6.41999800000000	136.18158800000000	13.37231500000000	0.41433000000000	0.00000000000000	-0.06546100000000	0.00000000000000	32.20139900000000	0.00000000000000	0.00000000000000	11.01939900000000	0.00000000000000	
2.66165200000000	-61.66402000000000	769.66291200000001	53.67092500000000	0.14978100000000	0.00000000000000	0.13498500000000	-5.88666000000000	141.71788300000000	13.17646900000000	0.41569900000000	0.00000000000000	-0.06577000000000	0.00000000000000	32.08460900000000	0.00000000000000	0.00000000000000	10.97159400000000	0.00000000000000	
2.66331900000000	-62.24646200000000	765.94556899999998	53.13543900000000	0.14930100000000	0.00000000000000	0.13480900000000	-5.31707500000000	147.37750500000001	12.95184200000000	0.41704200000000	0.00000000000000	-0.06607300000000	0.00000000000000	31.96395700000000	0.00000000000000	0.00000000000000	10.90536700000000	0.00000000000000	
2.66498500000000	-62.82614900000000	762.07592599999998	52.58001000000000	0.14883300000000	0.00000000000000	0.13462800000000	-4.70823000000000	153.14464100000001	12.69424100000000	0.41835600000000	0.00000000000000	-0.06637300000000	0.00000000000000	31.83950500000000	0.00000000000000	0.00000000000000	10.81733900000000	0.00000000000000	
2.66665100000000	-63.40255100000000	758.05307500000004	52.00519600000000	0.14837700000000	0.00000000000000	0.13444200000000	-4.05717300000000	159.00245899999999	12.39946800000000	0.41963700000000	0.00000000000000	-0.06667000000000	0.00000000000000	31.71130300000000	0.00000000000000	0.00000000000000	10.70410100000000	0.00000000000000	
2.66831500000000	-63.97507800000000	753.87616600000001	51.41159100000000	0.14793200000000	0.00000000000000	0.13425200000000	-3.36127000000000	164.93435700000001	12.06362700000000	0.42088400000000	0.00000000000000	-0.06696300000000	0.00000000000000	31.57938800000000	0.00000000000000	0.00000000000000	10.56245600000000	0.00000000000000	
2.66998400000000	-64.54308500000000	749.54441199999997	50.79982400000000	0.14749800000000	0.00000000000000	0.13405700000000	-2.61839900000000	170.92496600000001	11.68336900000000	0.42209200000000	0.00000000000000	-0.06725500000000	0.00000000000000	31.44378300000000	0.00000000000000	0.00000000000000	10.38960800000000	0.00000000000000	
2.67165000000000	-65.10586300000000	745.05709000000002	50.17055400000000	0.14707200000000	0.00000000000000	0.13385900000000	-1.82707500000000	176.96084900000000	11.25604600000000	0.42326000000000	0.00000000000000	-0.06754500000000	0.00000000000000	31.30449800000000	0.00000000000000	0.00000000000000	10.18328500000000	0.00000000000000	
2.67331500000000	-65.66264300000000	740.41354600000000	49.52447000000000	0.14665600000000	0.00000000000000	0.13365500000000	-0.98651300000000	183.03093000000001	10.77979700000000	0.42438400000000	0.00000000000000	-0.06783300000000	0.00000000000000	31.16152800000000	0.00000000000000	0.00000000000000	9.94181500000000	0.00000000000000	
2.67498300000000	-66.21259100000000	735.61319500000002	48.86229100000000	0.14624600000000	0.00000000000000	0.13344800000000	-0.09663300000000	189.12665699999999	10.25356500000000	0.42546100000000	0.00000000000000	-0.06812000000000	0.00000000000000	31.01485700000000	0.00000000000000	0.00000000000000	9.66413800000000	0.00000000000000	
2.67665200000000	-66.75480899999999	730.65553199999999	48.18476100000000	0.14584300000000	0.00000000000000	0.13323700000000	0.84197800000000	195.24195000000000	9.67705300000000	0.42648900000000	0.00000000000000	-0.06840600000000	0.00000000000000	30.86444900000000	0.00000000000000	0.00000000000000	9.34979000000000	0.00000000000000	
2.67831600000000	-67.28833500000000	725.54013099999997	47.49264600000000	0.14544500000000	0.00000000000000	0.13302300000000	1.82814200000000	201.37297500000000	9.05065100000000	0.42746600000000	0.00000000000000	-0.06869200000000	0.00000000000000	30.71025900000000	0.00000000000000	0.00000000000000	8.99884000000000	0.00000000000000	
2.67998300000000	-67.81214199999999	720.26665100000002	46.78673800000000	0.14505100000000	0.00000000000000	0.13280500000000	2.86018400000000	207.51780700000000	8.37532400000000	0.42838900000000	0.00000000000000	-0.06897700000000	0.00000000000000	30.55222400000000	0.00000000000000	0.00000000000000	8.61182100000000	0.00000000000000	
2.68164800000000	-68.32513899999999	714.83484599999997	46.06784300000000	0.14465900000000	0.00000000000000	0.13258300000000	3.93603500000000	213.67601600000000	7.65249700000000	0.42925500000000	0.00000000000000	-0.06926200000000	0.00000000000000	30.39026800000000	0.00000000000000	0.00000000000000	8.18963200000000	0.00000000000000	
2.68331700000000	-68.82617100000000	709.24456799999996	45.33678800000000	0.14426900000000	0.00000000000000	0.13235800000000	5.05334300000000	219.84823299999999	6.88392800000000	0.43006300000000	0.00000000000000	-0.06954700000000	0.00000000000000	30.22430200000000	0.00000000000000	0.00000000000000	7.73345200000000	0.00000000000000	
2.68498200000000	-69.31402100000000	703.49577699999998	44.59441400000000	0.14387800000000	0.00000000000000	0.13213100000000	6.20957200000000	226.03573000000000	6.07159500000000	0.43081100000000	0.00000000000000	-0.06983200000000	0.00000000000000	30.05422100000000	0.00000000000000	0.00000000000000	7.24465500000000	0.00000000000000	
2.68664900000000	-69.78741100000001	697.58855000000005	43.84157400000000	0.14348500000000	0.00000000000000	0.13190000000000	7.40208800000000	232.24004600000001	5.21760000000000	0.43149600000000	0.00000000000000	-0.07011600000000	0.00000000000000	29.87990800000000	0.00000000000000	0.00000000000000	6.72472600000000	0.00000000000000	
2.68832200000000	-70.24500500000001	691.52308800000003	43.07913100000000	0.14309000000000	0.00000000000000	0.13166700000000	8.62822800000000	238.46267000000000	4.32407800000000	0.43211700000000	0.00000000000000	-0.07040100000000	0.00000000000000	29.70123200000000	0.00000000000000	0.00000000000000	6.17520500000000	0.00000000000000	
2.68998500000000	-70.68540700000000	685.29972599999996	42.30795900000000	0.14269000000000	0.00000000000000	0.13143200000000	9.88535800000000	244.70480800000001	3.39314700000000	0.43267300000000	0.00000000000000	-0.07068600000000	0.00000000000000	29.51805200000000	0.00000000000000	0.00000000000000	5.59763800000000	0.00000000000000	
2.69165500000000	-71.10717200000001	678.91894800000000	41.52893400000000	0.14228400000000	0.00000000000000	0.13119500000000	11.17090500000000	250.96721900000000	2.42685900000000	0.43316200000000	0.00000000000000	-0.07097100000000	0.00000000000000	29.33021100000000	0.00000000000000	0.00000000000000	4.99354300000000	0.00000000000000	
2.69331900000000	-71.50879999999999	672.38138900000001	40.74293800000000	0.14187000000000	0.00000000000000	0.13095600000000	12.48237700000000	257.25013200000001	1.42718600000000	0.43358400000000	0.00000000000000	-0.07125600000000	0.00000000000000	29.13754300000000	0.00000000000000	0.00000000000000	4.36439500000000	0.00000000000000	
